<svg xmlns="http://www.w3.org/2000/svg" xmlns:xlink="http://www.w3.org/1999/xlink" viewBox="0 0 309.5 216.66"><defs><style>.cls-1{fill:#fff;}.cls-2{clip-path:url(#clip-path);}.cls-3{fill:#0510dd;}.cls-4{fill:#db0707;}.cls-5{fill:#f7ce08;}</style><clipPath id="clip-path" transform="translate(0 -0.4)"><path class="cls-1" d="M309.5,198.71c-26.23-14.7-50.83-19.83-80.75-17.93-51.59,6.86-99,30-150.75,36.1C48.87,218.13,26.15,213.09.5,199V19C26.15,33.09,48.87,38.13,78,36.88c51.74-6.1,99.16-29.24,150.75-36.1C258.67-1.12,283.27,4,309.5,18.71Z"/></clipPath></defs><title>Asset 6</title><g id="Layer_2" data-name="Layer 2"><g id="Philippines_Flag" data-name="Philippines Flag"><path class="cls-1" d="M309.5,198.71c-26.23-14.7-50.83-19.83-80.75-17.93-51.59,6.86-99,30-150.75,36.1C48.87,218.13,26.15,213.09.5,199V19C26.15,33.09,48.87,38.13,78,36.88c51.74-6.1,99.16-29.24,150.75-36.1C258.67-1.12,283.27,4,309.5,18.71Z" transform="translate(0 -0.4)"/><g class="cls-2"><path class="cls-1" d="M.5,19c25.28,39.71,54,75,89.5,106-25,28.09-53.57,60-90,73.23V18.71" transform="translate(0 -0.4)"/><path class="cls-3" d="M.5,19C34,62.5,72.61,95.33,122.5,118.39c63.76-18.31,124-44.46,187-9.68v-90C205.77-38.46,104.28,75.61.5,19Z" transform="translate(0 -0.4)"/><path class="cls-4" d="M.5,199c103.78,56.59,205.27-57.48,309-.31v-90c-63-34.78-123.24-8.63-187,9.68C89.44,151.31,49.52,193.05.5,199Z" transform="translate(0 -0.4)"/></g><path class="cls-5" d="M104.18,119.7l-3.32,1.56c-1.22-1.14-1.83-1.72-3-2.88-.38,1.88-.57,2.82-.94,4.69-1.33.59-2,.88-3.33,1.45,1.35.56,2,.84,3.36,1.38-.11,1.75-.17,2.63-.28,4.39,1.32-1.72,2-2.59,3.29-4.33,1.88.28,2.81.41,4.69.65l-2.38-3.14Z" transform="translate(0 -0.4)"/><path class="cls-5" d="M23.42,64.79c-1.33-.13-2-.21-3.33-.39-1.22-1.87-1.83-2.82-3-4.73l-.95,4.1c-1.33-.24-2-.37-3.32-.66,1.34,1.43,2,2.13,3.36,3.51-.12,1.68-.17,2.53-.28,4.21,1.31-.89,2-1.36,3.29-2.3C21,69.94,22,70.62,23.83,71.94c-.95-1.79-1.42-2.7-2.37-4.52Z" transform="translate(0 -0.4)"/><path class="cls-5" d="M23.43,175.44c-1.33-.14-2-.22-3.32-.4-1.22-1.87-1.83-2.82-3-4.73-.38,1.65-.57,2.47-.95,4.1-1.33-.23-2-.37-3.32-.65,1.34,1.42,2,2.13,3.35,3.5-.11,1.69-.16,2.53-.28,4.22,1.32-.9,2-1.36,3.29-2.31,1.88,1.42,2.82,2.1,4.69,3.42l-2.38-4.53C22.26,177,22.65,176.49,23.43,175.44Z" transform="translate(0 -0.4)"/><path class="cls-5" d="M66.91,131.63c2.64-1.68,4-2.55,6.59-4.34-2.64-1.5-4-2.28-6.59-3.9-4.34,1-6.51,1.39-10.85,2a11.55,11.55,0,0,0-2-4.81c3.57-2,5.36-3.08,8.93-5.33.7-3,1.05-4.53,1.74-7.55-3,.68-4.54,1-7.57,1.5-2.33,3.46-3.49,5.17-5.83,8.53a13,13,0,0,0-4.09-2.11c.93-4.22,1.4-6.33,2.33-10.57-1.65-2.83-2.47-4.26-4.12-7.15-1.65,2.38-2.47,3.55-4.12,5.87.93,4.53,1.4,6.78,2.33,11.29a9.64,9.64,0,0,0-4.88,1.24c-2.46-4.33-3.69-6.53-6.15-11-3-1.52-4.54-2.33-7.57-4.08l1.75,8.16c3.86,3.77,5.79,5.56,9.65,9a8.31,8.31,0,0,0-1.57,3.73,119.31,119.31,0,0,1-10.85-5.62c-2.64.71-3.95,1-6.59,1.54,2.64,2.77,3.95,4.11,6.59,6.7a86.89,86.89,0,0,0,10.88,1,13.55,13.55,0,0,0,1.69,4.56c-3.89,1.6-5.84,2.32-9.73,3.56-.7,2.79-1,4.19-1.74,7,3,.35,4.54.46,7.57.59,2.5-3.19,3.75-4.82,6.25-8.15a12.63,12.63,0,0,0,4.7,2.95c-.93,4.19-1.4,6.28-2.33,10.44,1.65,2.95,2.47,4.41,4.12,7.31,1.65-2.38,2.47-3.59,4.12-6-.93-4.46-1.4-6.7-2.33-11.17a9,9,0,0,0,3.91-1c2.38,3.92,3.56,5.86,5.94,9.67,3,.89,4.54,1.28,7.57,2L63,139.8c-3.6-2.4-5.41-3.66-9-6.3A9.67,9.67,0,0,0,56,129C60.38,130.22,62.56,130.74,66.91,131.63Z" transform="translate(0 -0.4)"/></g></g></svg>