<?xml version="1.0" encoding="utf-8"?>
<!-- Generator: Adobe Illustrator 24.0.1, SVG Export Plug-In . SVG Version: 6.00 Build 0)  -->
<svg version="1.1" id="Layer_1" xmlns="http://www.w3.org/2000/svg" xmlns:xlink="http://www.w3.org/1999/xlink" x="0px" y="0px"
	 viewBox="0 0 158.8 146" style="enable-background:new 0 0 158.8 146;" xml:space="preserve">
<style type="text/css">
	.st0{clip-path:url(#SVGID_2_);}
	.st1{fill:#FFFFFF;}
	.st2{clip-path:url(#SVGID_4_);}
	.st3{fill:#0510DD;}
	.st4{fill:#DB0707;}
	.st5{fill:#F7CE08;}
</style>
<title>Asset 3</title>
<g id="Layer_2_1_">
	<g id="Ph_Flag">
		<g>
			<defs>
				<circle id="SVGID_1_" cx="85.8" cy="73" r="73"/>
			</defs>
			<clipPath id="SVGID_2_">
				<use xlink:href="#SVGID_1_"  style="overflow:visible;"/>
			</clipPath>
			<g class="st0">
				<path class="st1" d="M239.5,149.6c-20.6-13.6-38-18.4-62.4-16.9c-40.2,6.9-76.1,27.8-116.5,34c-22.8,2.5-41.2-4.5-59.9-16.8
					V-19.8C19.5-7.6,37.9-0.6,60.7-3c40.4-6.2,76.2-27.1,116.5-34c24.4-1.6,41.8,3.3,62.4,16.9V149.6z"/>
				<g>
					<defs>
						<path id="SVGID_3_" d="M239.5,149.6c-20.6-13.6-38-18.4-62.4-16.9c-40.2,6.9-76.1,27.8-116.5,34c-22.8,2.5-41.2-4.5-59.9-16.8
							V-19.8C19.5-7.6,37.9-0.6,60.7-3c40.4-6.2,76.2-27.1,116.5-34c24.4-1.6,41.8,3.3,62.4,16.9V149.6z"/>
					</defs>
					<clipPath id="SVGID_4_">
						<use xlink:href="#SVGID_3_"  style="overflow:visible;"/>
					</clipPath>
					<g class="st2">
						<path class="st1" d="M0.8-19.8c19,36.2,40.7,70.3,69.2,99.9c-19,25.9-39.8,54.8-69.5,69V-20.1"/>
						<path class="st3" d="M0.8-19.8c24.8,39,53.8,70.9,94.3,93.7c50.1-17.7,95-41.6,144.5-9.1v-84.9C158.6-72.9,81.7,32.5,0.8-19.8
							z"/>
						<path class="st4" d="M0.8,149.9c80.9,52.3,157.9-53.1,238.8-0.3V64.8C190,32.3,145.1,56.2,95,73.9
							C71.8,102,40.3,144.8,0.8,149.9z"/>
					</g>
				</g>
				<path class="st5" d="M80.9,75.1c-1,0.6-1.5,0.9-2.6,1.5c-0.9-1.1-1.4-1.6-2.3-2.7c-0.3,1.8-0.4,2.7-0.7,4.4
					c-1,0.6-1.5,0.8-2.6,1.4l2.6,1.3c-0.1,1.7-0.1,2.5-0.2,4.1c1-1.6,1.5-2.4,2.5-4.1c1.4,0.3,2.2,0.4,3.6,0.6l-1.8-3
					C80,77.2,80.3,76.5,80.9,75.1z"/>
				<path class="st5" d="M18.5,23.3c-1-0.1-1.5-0.2-2.6-0.4c-0.9-1.8-1.4-2.7-2.4-4.5c-0.3,1.5-0.4,2.3-0.7,3.9
					c-1-0.2-1.5-0.4-2.6-0.6c1,1.3,1.6,2,2.6,3.3c-0.1,1.6-0.1,2.4-0.2,3.9c1-0.9,1.5-1.3,2.5-2.2c1.4,1.3,2.2,2,3.6,3.2
					c-0.7-1.7-1.1-2.5-1.8-4.3C17.6,24.8,17.9,24.3,18.5,23.3z"/>
				<path class="st5" d="M18.5,127.7c-1-0.1-1.5-0.2-2.6-0.4c-0.9-1.8-1.4-2.7-2.3-4.5c-0.3,1.6-0.4,2.3-0.7,3.9
					c-1-0.2-1.6-0.3-2.6-0.6c1,1.3,1.6,2,2.6,3.3c-0.1,1.6-0.1,2.4-0.2,4c1-0.9,1.5-1.3,2.6-2.2c1.4,1.3,2.2,2,3.6,3.2l-1.8-4.3
					L18.5,127.7z"/>
				<path class="st5" d="M52.1,86.4c2-1.6,3.1-2.4,5.1-4.1c-2-1.4-3-2.2-5.1-3.7c-2.8,0.8-5.6,1.4-8.4,1.9c-0.2-1.6-0.7-3.1-1.5-4.5
					c2.8-1.9,4.1-2.9,6.9-5l1.3-7.1c-2.3,0.6-3.5,0.9-5.9,1.4c-1.8,3.3-2.7,4.9-4.5,8c-0.9-0.9-2-1.5-3.2-2c0.7-4,1.1-6,1.8-10
					c-1.3-2.7-1.9-4-3.2-6.7c-1.3,2.2-1.9,3.3-3.2,5.5c0.7,4.3,1.1,6.4,1.8,10.7c-1.3,0-2.7,0.4-3.8,1.2c-1.9-4.1-2.9-6.2-4.8-10.4
					c-2.3-1.4-3.5-2.2-5.9-3.8l1.3,7.7c3,3.6,4.5,5.2,7.5,8.5c-0.6,1.1-1.1,2.3-1.2,3.5c-2.9-1.6-5.7-3.4-8.4-5.3
					c-2,0.7-3.1,1-5.1,1.4c2,2.6,3.1,3.9,5.1,6.3c2.8,0.5,5.6,0.8,8.4,0.9c0.2,1.5,0.7,2.9,1.4,4.3c-2.4,1.3-5,2.4-7.5,3.4L19.8,95
					c1.9,0.3,3.9,0.5,5.9,0.6c1.9-3,2.9-4.5,4.8-7.7c1,1.2,2.2,2.2,3.6,2.8c-0.7,4-1.1,5.9-1.8,9.8c1.3,2.8,1.9,4.2,3.2,6.9
					c1.3-2.2,1.9-3.4,3.2-5.7c-0.7-4.2-1.1-6.3-1.8-10.5c1.1-0.1,2.1-0.4,3-1c1.8,3.7,2.8,5.5,4.6,9.1c2.3,0.8,3.5,1.2,5.9,1.9
					L49,94c-2.8-2.3-4.2-3.4-7-5.9c0.9-1.3,1.4-2.7,1.6-4.3C46.4,84.8,49.2,85.7,52.1,86.4z"/>
			</g>
		</g>
	</g>
</g>
</svg>
