<svg xmlns="http://www.w3.org/2000/svg" xmlns:xlink="http://www.w3.org/1999/xlink" viewBox="0 0 317 213.29"><defs><style>.cls-1{clip-path:url(#clip-path);}.cls-2{fill:#c40000;}.cls-3{fill:#f15a24;}.cls-4{fill:#ff0;}.cls-5{fill:lime;}.cls-6{fill:blue;}.cls-7{fill:#1b1464;}</style><clipPath id="clip-path" transform="translate(1 5.02)"><path d="M0,23V181s38.5-23,83.25-23,115.25,45,146,45S311,181,311,181V23s-51,22-82,22S127.5,0,83.25,0,0,23,0,23Z"/></clipPath></defs><title>Asset 5</title><g id="Layer_2" data-name="Layer 2"><g id="Rainbow_Flag" data-name="Rainbow Flag"><path d="M0,23V181s38.5-23,83.25-23,115.25,45,146,45S311,181,311,181V23s-51,22-82,22S127.5,0,83.25,0,0,23,0,23Z" transform="translate(1 5.02)"/><g class="cls-1"><path class="cls-2" d="M0,23V61.05s96.53-58.47,155,0,159,0,159,0V18s-50,24-86,23S129-6,82-5,0,23,0,23" transform="translate(1 5.02)"/><path class="cls-3" d="M0,49V79.6s96.53-47,155,0,156,0,156,0V49s-47,18.5-83,17.69S129,29.7,82,30.5,0,49,0,49" transform="translate(1 5.02)"/><path class="cls-4" d="M0,74v30.6s96.53-47,155,0,161-1,161-1V73s-52,19.5-88,18.69S129,54.7,82,55.5,0,74,0,74" transform="translate(1 5.02)"/><path class="cls-5" d="M0,99v30.6s96.53-47,155,0,159-2,159-2V97s-50,20.5-86,19.69S129,79.7,82,80.5,0,99,0,99" transform="translate(1 5.02)"/><path class="cls-6" d="M-1,120v30.6s96.53-47,155,0,159-2,159-2V118s-50,20.5-86,19.69-99-37-146-36.19S-1,120-1,120" transform="translate(1 5.02)"/><path class="cls-7" d="M0,148.9v31.26S96.53,141,155,189s156-8.84,156-8.84V148.9S264,167.8,228,167s-96-40-146-37c-46.92,2.82-82,18.9-82,18.9" transform="translate(1 5.02)"/></g></g></g></svg>