<svg id="Layer_1" data-name="Layer 1" xmlns="http://www.w3.org/2000/svg" viewBox="0 0 1080 525"><defs><style>.cls-1{fill:#c5dbf2;}.cls-2{fill:#b3d9a0;}.cls-3{fill:#547abd;}.cls-4{fill:#e5a8b8;}.cls-5{fill:#f1eaae;}.cls-6{fill:#c1a3cd;}</style></defs><title>map</title><rect class="cls-1" width="1080" height="525"/><path class="cls-2" d="M295.19,271l72.5,11.68-4.45,27.6,57,31.21-91.3,93.82-12.22,56.23-19.93-3.21,19-118-35.71-5.76S311.12,259.51,295.19,271Z"/><polygon class="cls-3" points="464.49 132.84 437.68 69.17 390.65 88.98 385.29 70.72 200.49 27.24 149.24 103.34 200.49 103.34 226.89 165.46 217.57 227.57 268.82 293.08 318.51 314.54 287.88 258.63 318.51 246.21 318.51 272.61 418.56 184.09 412.62 163.84 464.49 132.84"/><polygon class="cls-4" points="475.05 158.66 526.3 114.4 560.46 147.01 694.02 42.96 703.33 63.15 900.56 50.73 900.56 84.89 821.36 165.64 847.76 165.64 765.45 322.49 723.52 294.54 695.57 341.13 672.27 294.54 520.08 192.04 475.05 202.91 475.05 158.66"/><polygon class="cls-5" points="475.05 232.23 450.27 293.08 475.05 314.54 526.3 314.54 552.7 434.12 616.37 341.13 636.56 314.54 569.3 241.55 475.05 232.23"/><polygon class="cls-6" points="756.13 390.63 756.13 426.35 816.7 415.48 843.1 448.1 867.95 398.4 824.47 358.02 756.13 390.63"/><polygon class="cls-6" points="846.21 232.23 812.04 280.38 846.21 263.29 846.21 232.23"/><polygon class="cls-6" points="802.72 314.54 777.88 358.02 802.72 341.13 802.72 314.54"/></svg>